<?xml version="1.0" encoding="UTF-8" standalone="no"?>
<!-- Generator: Adobe Illustrator 28.0.0, SVG Export Plug-In . SVG Version: 6.00 Build 0)  -->
<svg version="1.1" id="Calque_1" x="0px" y="0px" viewBox="0 0 477.60666 478.00714" xml:space="preserve" sodipodi:docname="CNRS-RF-Footer.svg" width="477.60666" height="478.00714" inkscape:version="1.3.1 (91b66b0, 2023-11-16)" xmlns:inkscape="http://www.inkscape.org/namespaces/inkscape" xmlns:sodipodi="http://sodipodi.sourceforge.net/DTD/sodipodi-0.dtd" xmlns="http://www.w3.org/2000/svg" xmlns:svg="http://www.w3.org/2000/svg"><defs id="defs25"/><sodipodi:namedview id="namedview25" pagecolor="#ffffff" bordercolor="#000000" borderopacity="0.25" inkscape:showpageshadow="2" inkscape:pageopacity="0.0" inkscape:pagecheckerboard="0" inkscape:deskcolor="#d1d1d1" inkscape:zoom="0.36702955" inkscape:cx="-73.563559" inkscape:cy="239.76271" inkscape:window-width="1312" inkscape:window-height="449" inkscape:window-x="88" inkscape:window-y="178" inkscape:window-maximized="0" inkscape:current-layer="Calque_1"/>
<style type="text/css" id="style1">
	.st0{fill:#FFFFFF;}
	.st1{fill:#000091;}
	.st2{fill:#E1000F;}
	.st3{fill:#9C9B9B;}
	.st4{fill:#00284B;}
</style>

<g id="g25" transform="translate(-765.7,-82.7)">
	<path class="st4" d="m 994.6,83.2 c -4.2,-0.2 -8.5,-0.5 -12.8,-0.5 -59,0 -112.6,25.1 -159.4,75.1 -42.5,45.3 -56.7,82 -56.7,125.9 0,23.7 4.2,49.4 10.4,79.8 11.5,57.2 45.6,112.4 93.3,151.6 36.3,30 77,45.1 119.7,45.6 22.2,0.2 44.9,-3.8 68,-11.8 74.6,-25.7 145.7,-99.4 173.4,-179 8.7,-25.3 13,-49.8 12.8,-73.2 -0.2,-57.2 -26.2,-107.2 -76,-142.9 C 1107.1,110.1 1049,86.5 994.6,83.2 Z" id="path20"/>
	<g id="g24">
		<path class="st0" d="m 909.7,322.2 h -16.3 v 0.5 c -0.2,3.1 -2.2,31 -26.9,31 -22.2,0 -33.5,-20.1 -33.5,-59.3 0,-39.4 11.4,-59.3 33.5,-59.3 25.3,0 26.9,29.8 26.9,31 v 0.5 h 16.3 c 1.4,0 3.1,-0.7 4,-1.7 0.9,-0.9 1.4,-2.3 1.4,-3.8 -0.2,-7.8 -4.2,-46.3 -49.1,-46.3 -36.1,0 -55.3,27.4 -55.3,79.6 0,52.2 19.2,79.8 55.3,79.8 43.2,0 48.4,-35.2 49.1,-46.1 0,-1.4 -0.5,-2.8 -1.4,-4 -1.2,-1.2 -2.6,-1.9 -4,-1.9 z" id="path21"/>
		<path class="st0" d="m 1164.3,284.8 v 0 l -14.2,-6.1 c -13.4,-5.9 -18.4,-11.8 -18.4,-22.2 0,-13.4 10,-22.7 24.8,-22.7 8.7,0 15.8,1.9 24.6,10.6 l 0.5,0.5 7.6,-6.9 c 4.2,-4 3.1,-7.8 1.2,-10.1 -7.3,-8.7 -19.2,-13.4 -33.3,-13.4 -27.1,0 -46.7,17.7 -46.7,42.1 0,24.1 15.1,34 31.4,41.3 l 14.4,6.4 c 14.4,6.4 21.2,12 21.2,26 0,18.9 -17.3,24.1 -27.4,24.1 -8.7,0 -18.4,-1.9 -30.5,-15.4 l -0.5,-0.5 -7.8,6.9 c -4,3.6 -4,6.6 -0.2,11.5 10.9,13.9 26.7,16.8 38,16.8 24.6,0 49.6,-15.1 49.6,-43.9 0.4,-24.9 -13.6,-36 -34.3,-45 z" id="path22"/>
		<path class="st0" d="m 1025.2,260.3 c 0,-24.6 -19.8,-45.3 -44.6,-45.3 -11.5,0 -22.2,4.5 -30,11.5 V 218 h -14.9 c -4.5,0 -6.1,2.8 -6.1,6.4 V 368 c 0,4 2.3,6.1 6.1,6.1 h 14.9 V 261.3 c 0,-14.9 12,-26.9 26.9,-26.9 14.9,0 26.9,12 26.9,26.9 v 112.9 h 14.6 c 4,0 6.1,-2.3 6.1,-6.1 0.1,-0.1 0.1,-107.6 0.1,-107.8 z" id="path23"/>
		<path class="st0" d="m 1109.9,225.6 c 0.7,-0.9 1.2,-2.2 1.2,-3.6 0,-2.3 -1.7,-4.5 -3.8,-5.2 -4.2,-1.4 -8.7,-2.2 -13.7,-2.2 -11.5,0 -22.2,4.5 -30,11.5 v -8.5 h -14.9 c -4.5,0 -6.1,2.8 -6.1,6.4 v 143.6 c 0,4 2.3,6.1 6.1,6.1 h 14.9 V 261 c 0,-14.9 12,-26.9 26.9,-26.9 3.8,0 7.6,0.9 10.9,2.3 z" id="path24"/>
	</g>
</g>
</svg>